<svg version="1.1" id="icon-document-la" xmlns="http://www.w3.org/2000/svg" viewBox="0 0 100 100">
<style type="text/css">
	.st0{fill:#FCB446;}
</style>
<title>Document line art icon</title>
<path class="st0" d="M84.3,29.2c0-0.1,0-0.1-0.1-0.2c0-0.1,0-0.1-0.1-0.2c0-0.1-0.1-0.1-0.1-0.2c0-0.1-0.1-0.1-0.1-0.2
	c0-0.1-0.1-0.1-0.2-0.2c0,0-0.1-0.1-0.1-0.1l0,0c0,0,0,0,0,0L64.4,8.4c-0.4-0.7-1-1.1-1.9-1.1c0,0,0,0-0.1,0c0,0,0,0-0.1,0H21.8
	c-3.4,0-6.1,2.8-6.1,6.1v71.7c0,3.4,2.8,6.1,6.1,6.1h56.4c3.4,0,6.1-2.8,6.1-6.1V29.6C84.4,29.4,84.4,29.3,84.3,29.2z M64.6,14.7
	l12.6,12.8H66.6c-1.1,0-1.9-0.9-1.9-1.9V14.7z M78.2,87.1H21.8c-1.1,0-1.9-0.9-1.9-1.9V13.4c0-1.1,0.9-1.9,1.9-1.9h38.6v14
	c0,3.4,2.8,6.1,6.1,6.1h13.6v53.4C80.1,86.2,79.3,87.1,78.2,87.1z M68.5,49.3c0,1.2-0.9,2.1-2.1,2.1H33.6c-1.2,0-2.1-0.9-2.1-2.1
	s0.9-2.1,2.1-2.1h32.8C67.5,47.2,68.5,48.1,68.5,49.3z M68.5,59c0,1.2-0.9,2.1-2.1,2.1H33.6c-1.2,0-2.1-0.9-2.1-2.1
	c0-1.2,0.9-2.1,2.1-2.1h32.8C67.5,56.9,68.5,57.9,68.5,59z M68.5,68.8c0,1.2-0.9,2.1-2.1,2.1H33.6c-1.2,0-2.1-0.9-2.1-2.1
	c0-1.2,0.9-2.1,2.1-2.1h32.8C67.5,66.7,68.5,67.7,68.5,68.8z"/>
</svg>
